<?xml version="1.0" encoding="utf-8"?>
<!-- Generator: Adobe Illustrator 26.5.0, SVG Export Plug-In . SVG Version: 6.00 Build 0)  -->
<svg version="1.1" id="Layer_1" xmlns="http://www.w3.org/2000/svg" xmlns:xlink="http://www.w3.org/1999/xlink" x="0px" y="0px"
	 viewBox="0 0 493 493" style="enable-background:new 0 0 493 493;" xml:space="preserve">
<style type="text/css">
	.st0{stroke:#231F20;stroke-miterlimit:10;}
	.st1{fill:#FFFFFF;stroke:#000000;stroke-miterlimit:10;}
	.st2{fill:url(#SVGID_1_);fill-opacity:0.84;stroke:#000000;stroke-miterlimit:10;}
	.st3{fill:#F4F4F5;stroke:#231F20;stroke-miterlimit:10;}
	.st4{fill:#3953A4;stroke:#231F20;stroke-miterlimit:10;}
	.st5{fill:#FFFFFF;}
	.st6{fill:none;stroke:#231F20;stroke-miterlimit:10;}
	.st7{fill:#CCCCCB;stroke:#231F20;stroke-miterlimit:10;}
	.st8{fill:#E5E5E5;stroke:#231F20;stroke-miterlimit:10;}
	.st9{fill:#D3D3D3;stroke:#231F20;stroke-miterlimit:10;}
	.st10{fill-opacity:0.25;stroke:#231F20;stroke-miterlimit:10;}
</style>
<g id="background">
	<rect x="0.5" y="0.5" class="st0" width="492" height="492"/>
</g>
<g id="bloodDrop">
	<path class="st1" d="M286.6,12c-53.7,39.8-121,104.3-159.5,199.5c-8.3,20.5-23.3,61.2-20.1,114c1.3,21.4,3,45.3,17.4,71.1
		c2.3,4,30.5,52.7,86.4,66.2c64.2,15.6,131.7-23,161.1-73c38.6-65.6,16.5-157.2-23-209c-24.1-31.6-51.1-43.7-63.7-85
		C275.5,63.5,280.6,32.9,286.6,12L286.6,12z"/>
	
		<linearGradient id="SVGID_1_" gradientUnits="userSpaceOnUse" x1="156.3363" y1="171.8031" x2="399.2047" y2="332.1906" gradientTransform="matrix(1 0 0 -1 0 496)">
		<stop  offset="0" style="stop-color:#B54A3A"/>
		<stop  offset="0.367" style="stop-color:#FFFFFF;stop-opacity:0.25"/>
		<stop  offset="0.7407" style="stop-color:#A91F24"/>
	</linearGradient>
	<path class="st2" d="M286.6,12c-53.7,39.8-121,104.3-159.5,199.5c-8.3,20.5-23.3,61.2-20.1,114c1.3,21.4,3,45.3,17.4,71.1
		c2.3,4,30.5,52.7,86.4,66.2c64.2,15.6,131.7-23,161.1-73c38.6-65.6,16.5-157.2-23-209c-24.1-31.6-51.1-43.7-63.7-85
		C275.5,63.5,280.6,32.9,286.6,12L286.6,12z"/>
</g>
<g id="insulin">
	<path class="st3" d="M230,230.6h30.8c15.5,0,28.1,12.6,28.1,28.1v109c0,15.5-12.6,28.1-28.1,28.1H230c-15.5,0-28.1-12.6-28.1-28.1
		v-109C202,243.2,214.5,230.6,230,230.6z"/>
	<rect x="218.6" y="201.5" class="st3" width="53.7" height="16.9"/>
	<path class="st3" d="M265.8,230.6h-40.4c0.3-0.5,2-3.3,1.2-6.5c-0.8-3.4-4.1-5.9-8-5.7h53.7c-3.6,0.2-6.5,2.6-7.4,5.9
		C264.1,227.4,265.5,230.1,265.8,230.6z"/>
	<path class="st4" d="M287.9,375.3H203c-0.1-0.5-0.3-1.2-0.5-2c-0.6-2.8-0.5-5-0.6-5.6c0-37.4-1.4-74.8-0.3-112.2
		c0-0.3,0-1.2,0.3-2.3c0.4-1.9,1.2-3.4,1.8-4.4l82.2-0.2c0.4,0.3,1.5,1.1,2.1,2.5c0.6,1.4,0.5,2.6,0.5,3.2c0,0,0,0,0,0c0,0,0,0,0,0
		c0.1,1.5,0.2,3,0.4,4.4c0.4,4.9,0,102.3,0.1,107.2c0,0.4,0,1.9-0.2,3.9C288.6,372.2,288.2,374,287.9,375.3z"/>
	<g id="textContainer">
		<g>
			<path class="st5" d="M208.5,260.5l1.8,3.2l8.4-4.9l-1.8-3.2l2.6-1.5l5.4,9.4l-2.6,1.5l-1.8-3.2l-8.4,4.9l1.8,3.2l-2.6,1.5
				l-5.4-9.4L208.5,260.5z"/>
			<path class="st5" d="M229,270.6l1.8,3.1l-5.1,6.7l-2.3,2.9l0,0.1c1.3-1,3.1-2.3,4.7-3.3l4.8-2.8l1.7,2.9l-13.5,7.8l-1.8-3.1
				l5.1-6.7l2.3-2.9l0-0.1c-1.4,1-3.1,2.3-4.7,3.3l-4.8,2.8l-1.7-2.9L229,270.6z"/>
			<path class="st5" d="M226.6,293.8l3.1,0.5c-0.2,1.5-0.1,3.1,0.7,4.4c0.8,1.3,1.6,1.6,2.3,1.2c1-0.6,0.7-1.5,0.5-3.1l-0.3-2.2
				c-0.3-1.8,0.1-3.9,2-5c2.2-1.3,5.2-0.3,6.9,2.6c0.9,1.6,1.3,3.6,0.8,5.5l-2.8-0.4c0.1-1.3,0-2.4-0.7-3.7c-0.6-1-1.4-1.5-2.2-1
				c-0.8,0.5-0.6,1.5-0.3,3.1l0.3,2.1c0.4,2.2-0.1,3.9-2,5c-2.3,1.3-5.3,0.5-7.2-2.8C226.5,298.2,226.1,295.9,226.6,293.8z"/>
			<path class="st5" d="M239.8,308.6l8.3-4.8l1.8,3.1l-8.6,5c-1.6,0.9-2.2,2-1.4,3.3c0.7,1.3,2,1.4,3.6,0.5l8.6-5l1.7,3l-8.3,4.8
				c-3.5,2-6.4,1.6-8.3-1.7C235.3,313.4,236.3,310.7,239.8,308.6z"/>
			<path class="st5" d="M258.3,321.3l1.8,3.1l-11,6.3l3.5,6l-2.6,1.5l-5.2-9.1L258.3,321.3z"/>
			<path class="st5" d="M256.5,343.6l1.8,3.2l8.4-4.9l-1.8-3.2l2.6-1.5l5.4,9.4l-2.6,1.5l-1.8-3.2l-8.4,4.9l1.8,3.2l-2.6,1.5
				l-5.4-9.4L256.5,343.6z"/>
			<path class="st5" d="M277,353.8l1.8,3.1l-5.1,6.7l-2.3,2.9l0,0.1c1.3-1,3.1-2.3,4.7-3.3l4.8-2.8l1.7,2.9l-13.5,7.8l-1.8-3.1
				l5.1-6.7l2.3-2.9l0-0.1c-1.4,1-3.1,2.3-4.7,3.3l-4.8,2.8l-1.7-2.9L277,353.8z"/>
		</g>
	</g>
</g>
<g id="syringe">
	<line class="st6" x1="353.5" y1="204.5" x2="303.5" y2="253.4"/>
	
		<rect x="166.6" y="356.8" transform="matrix(0.7151 -0.699 0.699 0.7151 -198.4116 237.5822)" class="st7" width="51.3" height="10.7"/>
	<path class="st8" d="M164.9,370.8l18.1,18.5c1.1,1.2,1.1,3,0,4.2l0,0c-1.2,1.1-3,1.1-4.2,0L160.6,375c-1.1-1.2-1.1-3,0-4.2l0,0
		C161.9,369.7,163.7,369.7,164.9,370.8z"/>
	<path class="st7" d="M210.6,344.3c-12.3,11.9-24.6,23.8-36.8,35.6"/>
	<rect x="210" y="327" transform="matrix(0.7151 -0.699 0.699 0.7151 -179.1232 245.9801)" class="st9" width="4.5" height="31.4"/>
	<polygon class="st10" points="219.7,358.4 196.6,334.8 292,241.6 303.5,253.4 315.1,265.2 	"/>
	<line class="st6" x1="279.2" y1="254.2" x2="286.9" y2="262.1"/>
	<line class="st6" x1="276.6" y1="256.6" x2="280.5" y2="260.6"/>
	<line class="st6" x1="274.1" y1="259.1" x2="278" y2="263"/>
	<line class="st6" x1="271.6" y1="261.5" x2="275.5" y2="265.5"/>
	<line class="st6" x1="269.1" y1="264" x2="273" y2="268"/>
	<line class="st6" x1="292" y1="241.6" x2="299.8" y2="249.6"/>
	<line class="st6" x1="289.5" y1="244.1" x2="293.4" y2="248"/>
	<line class="st6" x1="287" y1="246.5" x2="290.9" y2="250.5"/>
	<line class="st6" x1="284.5" y1="249" x2="288.4" y2="252.9"/>
	<line class="st6" x1="282" y1="251.4" x2="285.8" y2="255.4"/>
	<line class="st6" x1="266.6" y1="266.4" x2="274.4" y2="274.4"/>
	<line class="st6" x1="264.1" y1="268.9" x2="268" y2="272.9"/>
	<line class="st6" x1="261.6" y1="271.3" x2="265.5" y2="275.3"/>
	<line class="st6" x1="259.1" y1="273.8" x2="263" y2="277.8"/>
	<line class="st6" x1="256.6" y1="276.2" x2="260.4" y2="280.2"/>
	<line class="st6" x1="254" y1="278.7" x2="261.8" y2="286.7"/>
	<line class="st6" x1="251.5" y1="281.2" x2="255.4" y2="285.1"/>
	<line class="st6" x1="249" y1="283.6" x2="252.9" y2="287.6"/>
	<line class="st6" x1="246.5" y1="286.1" x2="250.4" y2="290"/>
	<line class="st6" x1="244" y1="288.5" x2="247.9" y2="292.5"/>
	<line class="st6" x1="241.5" y1="291" x2="249.3" y2="298.9"/>
	<line class="st6" x1="239" y1="293.4" x2="242.9" y2="297.4"/>
	<line class="st6" x1="236.5" y1="295.9" x2="240.4" y2="299.9"/>
	<line class="st6" x1="234" y1="298.3" x2="237.8" y2="302.3"/>
	<line class="st6" x1="231.4" y1="300.8" x2="235.3" y2="304.8"/>
	<line class="st6" x1="228.9" y1="303.3" x2="236.7" y2="311.2"/>
	<line class="st6" x1="226.4" y1="305.7" x2="230.3" y2="309.7"/>
	<line class="st6" x1="223.9" y1="308.2" x2="227.8" y2="312.1"/>
	<line class="st6" x1="221.4" y1="310.6" x2="225.3" y2="314.6"/>
	<line class="st6" x1="218.9" y1="313.1" x2="222.8" y2="317.1"/>
	<line class="st6" x1="216.1" y1="315.7" x2="223.9" y2="323.7"/>
	<line class="st6" x1="213.6" y1="318.2" x2="217.5" y2="322.2"/>
	<line class="st6" x1="211.1" y1="320.7" x2="215" y2="324.6"/>
	<line class="st6" x1="208.6" y1="323.1" x2="212.5" y2="327.1"/>
	<line class="st6" x1="206.1" y1="325.6" x2="210" y2="329.6"/>
	<path class="st0" d="M185.9,321.3l47.1,48.2c0.1,0.1,0.1,0.2,0,0.2l-2.4,2.3c-0.1,0.1-0.2,0.1-0.2,0l-47.1-48.2
		c-0.1-0.1-0.1-0.2,0-0.2l2.4-2.3C185.8,321.2,185.9,321.2,185.9,321.3z"/>
</g>
</svg>
